<svg viewBox="0 0 24 24" fill="none" stroke="white" xmlns="http://www.w3.org/2000/svg">
<path d="M3 6H5H21" stroke-width="3" stroke-linecap="round" stroke-linejoin="round"/>
<path d="M19 6H20C20 5.44772 19.5523 5 19 5V6ZM5 6V5C4.44772 5 4 5.44772 4 6H5ZM8 6H7C7 6.55228 7.44772 7 8 7V6ZM16 6V7C16.5523 7 17 6.55228 17 6H16ZM18 6V20H20V6H18ZM18 20C18 20.5523 17.5523 21 17 21V23C18.6569 23 20 21.6569 20 20H18ZM17 21H7V23H17V21ZM7 21C6.44772 21 6 20.5523 6 20H4C4 21.6569 5.34315 23 7 23V21ZM6 20V6H4V20H6ZM19 5H5V7H19V5ZM9 6V4H7V6H9ZM9 4C9 3.44772 9.44772 3 10 3V1C8.34315 1 7 2.34315 7 4H9ZM10 3H14V1H10V3ZM14 3C14.5523 3 15 3.44772 15 4H17C17 2.34315 15.6569 1 14 1V3ZM15 4V6H17V4H15ZM8 7H16V5H8V7Z" fill="white"/>
<path d="M10 11V17" stroke-width="3" stroke-linecap="round" stroke-linejoin="round"/>
<path d="M14 11V17" stroke-width="3" stroke-linecap="round" stroke-linejoin="round"/>
</svg>
